<svg width="276" height="264" viewBox="0 0 276 264" fill="none" xmlns="http://www.w3.org/2000/svg">
<path d="M0 0H276L256 52H20L0 0Z" fill="#FF3363"/>
<path d="M127.687 23V14.194H125.671V12.57H129.591V23H127.687ZM135.867 23.168C135.036 23.168 134.308 22.944 133.683 22.496C133.058 22.048 132.568 21.418 132.213 20.606C131.868 19.794 131.695 18.8513 131.695 17.778C131.695 16.6953 131.868 15.7527 132.213 14.95C132.558 14.1473 133.044 13.522 133.669 13.074C134.294 12.626 135.022 12.402 135.853 12.402C136.702 12.402 137.435 12.626 138.051 13.074C138.676 13.522 139.166 14.152 139.521 14.964C139.876 15.7667 140.053 16.7047 140.053 17.778C140.053 18.8513 139.876 19.794 139.521 20.606C139.176 21.4087 138.69 22.0387 138.065 22.496C137.44 22.944 136.707 23.168 135.867 23.168ZM135.881 21.432C136.357 21.432 136.763 21.2873 137.099 20.998C137.435 20.6993 137.692 20.2793 137.869 19.738C138.056 19.1873 138.149 18.534 138.149 17.778C138.149 17.022 138.056 16.3733 137.869 15.832C137.692 15.2813 137.43 14.8613 137.085 14.572C136.749 14.2827 136.338 14.138 135.853 14.138C135.386 14.138 134.985 14.2827 134.649 14.572C134.313 14.8613 134.052 15.2813 133.865 15.832C133.688 16.3733 133.599 17.022 133.599 17.778C133.599 18.5247 133.688 19.1733 133.865 19.724C134.052 20.2653 134.313 20.6853 134.649 20.984C134.994 21.2827 135.405 21.432 135.881 21.432ZM145.779 23.168C144.949 23.168 144.221 22.944 143.595 22.496C142.97 22.048 142.48 21.418 142.125 20.606C141.78 19.794 141.607 18.8513 141.607 17.778C141.607 16.6953 141.78 15.7527 142.125 14.95C142.471 14.1473 142.956 13.522 143.581 13.074C144.207 12.626 144.935 12.402 145.765 12.402C146.615 12.402 147.347 12.626 147.963 13.074C148.589 13.522 149.079 14.152 149.433 14.964C149.788 15.7667 149.965 16.7047 149.965 17.778C149.965 18.8513 149.788 19.794 149.433 20.606C149.088 21.4087 148.603 22.0387 147.977 22.496C147.352 22.944 146.619 23.168 145.779 23.168ZM145.793 21.432C146.269 21.432 146.675 21.2873 147.011 20.998C147.347 20.6993 147.604 20.2793 147.781 19.738C147.968 19.1873 148.061 18.534 148.061 17.778C148.061 17.022 147.968 16.3733 147.781 15.832C147.604 15.2813 147.343 14.8613 146.997 14.572C146.661 14.2827 146.251 14.138 145.765 14.138C145.299 14.138 144.897 14.2827 144.561 14.572C144.225 14.8613 143.964 15.2813 143.777 15.832C143.6 16.3733 143.511 17.022 143.511 17.778C143.511 18.5247 143.6 19.1733 143.777 19.724C143.964 20.2653 144.225 20.6853 144.561 20.984C144.907 21.2827 145.317 21.432 145.793 21.432Z" fill="white"/>
<path d="M128.138 41V33.55H128.838L133.208 39.82H132.938V33.55H133.738V41H133.038L128.668 34.69H128.938V41H128.138ZM137.831 41.12C137.331 41.12 136.878 41 136.471 40.76C136.071 40.5133 135.754 40.1767 135.521 39.75C135.288 39.3233 135.171 38.84 135.171 38.3C135.171 37.76 135.284 37.2833 135.511 36.87C135.738 36.45 136.044 36.12 136.431 35.88C136.824 35.64 137.264 35.52 137.751 35.52C138.138 35.52 138.481 35.5933 138.781 35.74C139.088 35.88 139.348 36.0733 139.561 36.32C139.774 36.56 139.938 36.8333 140.051 37.14C140.164 37.44 140.221 37.75 140.221 38.07C140.221 38.1367 140.218 38.2133 140.211 38.3C140.204 38.38 140.194 38.4633 140.181 38.55H135.651V37.85H139.751L139.391 38.15C139.451 37.7833 139.408 37.4567 139.261 37.17C139.121 36.8767 138.918 36.6467 138.651 36.48C138.384 36.3067 138.084 36.22 137.751 36.22C137.418 36.22 137.108 36.3067 136.821 36.48C136.541 36.6533 136.321 36.8967 136.161 37.21C136.001 37.5167 135.938 37.8833 135.971 38.31C135.938 38.7367 136.004 39.11 136.171 39.43C136.344 39.7433 136.578 39.9867 136.871 40.16C137.171 40.3333 137.491 40.42 137.831 40.42C138.224 40.42 138.554 40.3267 138.821 40.14C139.088 39.9533 139.304 39.72 139.471 39.44L140.111 39.78C140.004 40.02 139.841 40.2433 139.621 40.45C139.401 40.65 139.138 40.8133 138.831 40.94C138.531 41.06 138.198 41.12 137.831 41.12ZM142.723 41L140.883 35.64H141.733L143.253 40.33H142.953L144.383 35.64H145.133L146.563 40.33H146.263L147.793 35.64H148.633L146.793 41H146.043L144.653 36.41H144.863L143.473 41H142.723Z" fill="white"/>
<path d="M20 53H256L238.899 105H37.1014L20 53Z" fill="#FFE664"/>
<path d="M133.545 76.168C132.789 76.168 132.131 76.028 131.571 75.748C131.02 75.4587 130.591 75.0713 130.283 74.586C129.984 74.1007 129.835 73.5687 129.835 72.99C129.835 72.3087 130.017 71.7347 130.381 71.268C130.745 70.792 131.272 70.442 131.963 70.218L131.851 70.68C131.356 70.5213 130.964 70.2133 130.675 69.756C130.395 69.2987 130.255 68.7947 130.255 68.244C130.255 67.6933 130.395 67.2033 130.675 66.774C130.955 66.3447 131.342 66.0087 131.837 65.766C132.332 65.5233 132.901 65.402 133.545 65.402C134.18 65.402 134.74 65.5233 135.225 65.766C135.72 66.0087 136.107 66.3447 136.387 66.774C136.676 67.2033 136.821 67.6933 136.821 68.244C136.821 68.804 136.676 69.3127 136.387 69.77C136.107 70.218 135.72 70.526 135.225 70.694L135.127 70.204C135.818 70.4467 136.345 70.806 136.709 71.282C137.073 71.7487 137.255 72.3227 137.255 73.004C137.255 73.5827 137.101 74.1147 136.793 74.6C136.494 75.076 136.065 75.4587 135.505 75.748C134.954 76.028 134.301 76.168 133.545 76.168ZM133.545 74.558C133.909 74.558 134.226 74.4927 134.497 74.362C134.768 74.222 134.978 74.0307 135.127 73.788C135.276 73.536 135.351 73.2513 135.351 72.934C135.351 72.6073 135.276 72.3273 135.127 72.094C134.978 71.8513 134.768 71.6647 134.497 71.534C134.226 71.394 133.909 71.324 133.545 71.324C133.181 71.324 132.864 71.394 132.593 71.534C132.332 71.6647 132.126 71.8513 131.977 72.094C131.828 72.3273 131.753 72.6073 131.753 72.934C131.753 73.2513 131.828 73.536 131.977 73.788C132.126 74.0307 132.332 74.222 132.593 74.362C132.864 74.4927 133.181 74.558 133.545 74.558ZM133.545 69.714C133.816 69.714 134.054 69.6533 134.259 69.532C134.464 69.4107 134.623 69.252 134.735 69.056C134.856 68.8507 134.917 68.6173 134.917 68.356C134.917 68.0947 134.856 67.866 134.735 67.67C134.623 67.4647 134.464 67.306 134.259 67.194C134.054 67.0727 133.816 67.012 133.545 67.012C133.274 67.012 133.032 67.0727 132.817 67.194C132.612 67.306 132.448 67.4647 132.327 67.67C132.215 67.866 132.159 68.0947 132.159 68.356C132.159 68.6173 132.215 68.8507 132.327 69.056C132.448 69.252 132.612 69.4107 132.817 69.532C133.032 69.6533 133.274 69.714 133.545 69.714ZM142.923 76.168C142.092 76.168 141.364 75.944 140.739 75.496C140.113 75.048 139.623 74.418 139.269 73.606C138.923 72.794 138.751 71.8513 138.751 70.778C138.751 69.6953 138.923 68.7527 139.269 67.95C139.614 67.1473 140.099 66.522 140.725 66.074C141.35 65.626 142.078 65.402 142.909 65.402C143.758 65.402 144.491 65.626 145.107 66.074C145.732 66.522 146.222 67.152 146.577 67.964C146.931 68.7667 147.109 69.7047 147.109 70.778C147.109 71.8513 146.931 72.794 146.577 73.606C146.231 74.4087 145.746 75.0387 145.121 75.496C144.495 75.944 143.763 76.168 142.923 76.168ZM142.937 74.432C143.413 74.432 143.819 74.2873 144.155 73.998C144.491 73.6993 144.747 73.2793 144.925 72.738C145.111 72.1873 145.205 71.534 145.205 70.778C145.205 70.022 145.111 69.3733 144.925 68.832C144.747 68.2813 144.486 67.8613 144.141 67.572C143.805 67.2827 143.394 67.138 142.909 67.138C142.442 67.138 142.041 67.2827 141.705 67.572C141.369 67.8613 141.107 68.2813 140.921 68.832C140.743 69.3733 140.655 70.022 140.655 70.778C140.655 71.5247 140.743 72.1733 140.921 72.724C141.107 73.2653 141.369 73.6853 141.705 73.984C142.05 74.2827 142.461 74.432 142.937 74.432Z" fill="#001B44"/>
<path d="M116.279 94.12C115.752 94.12 115.269 94.0267 114.829 93.84C114.389 93.6467 114.006 93.38 113.679 93.04C113.359 92.6933 113.109 92.2867 112.929 91.82C112.749 91.3533 112.659 90.84 112.659 90.28C112.659 89.72 112.749 89.2067 112.929 88.74C113.109 88.2733 113.359 87.8667 113.679 87.52C114.006 87.1733 114.389 86.9067 114.829 86.72C115.269 86.5267 115.752 86.43 116.279 86.43C116.786 86.43 117.239 86.52 117.639 86.7C118.046 86.88 118.386 87.1133 118.659 87.4C118.939 87.68 119.139 87.9767 119.259 88.29L118.509 88.62C118.322 88.1867 118.036 87.84 117.649 87.58C117.269 87.3133 116.812 87.18 116.279 87.18C115.732 87.18 115.246 87.31 114.819 87.57C114.392 87.83 114.059 88.1933 113.819 88.66C113.579 89.12 113.459 89.66 113.459 90.28C113.459 90.8933 113.579 91.4333 113.819 91.9C114.059 92.3667 114.392 92.73 114.819 92.99C115.246 93.2433 115.732 93.37 116.279 93.37C116.812 93.37 117.269 93.24 117.649 92.98C118.036 92.72 118.322 92.3733 118.509 91.94L119.259 92.27C119.139 92.5767 118.939 92.8733 118.659 93.16C118.386 93.44 118.046 93.67 117.639 93.85C117.239 94.03 116.786 94.12 116.279 94.12ZM122.994 94.12C122.487 94.12 122.027 94 121.614 93.76C121.201 93.5133 120.871 93.18 120.624 92.76C120.384 92.3333 120.264 91.85 120.264 91.31C120.264 90.7767 120.384 90.3 120.624 89.88C120.864 89.46 121.187 89.13 121.594 88.89C122.007 88.6433 122.474 88.52 122.994 88.52C123.514 88.52 123.977 88.64 124.384 88.88C124.797 89.12 125.121 89.45 125.354 89.87C125.594 90.29 125.714 90.77 125.714 91.31C125.714 91.8567 125.591 92.3433 125.344 92.77C125.097 93.19 124.767 93.52 124.354 93.76C123.947 94 123.494 94.12 122.994 94.12ZM122.994 93.37C123.354 93.37 123.677 93.28 123.964 93.1C124.257 92.92 124.487 92.6733 124.654 92.36C124.827 92.0467 124.914 91.6967 124.914 91.31C124.914 90.9233 124.827 90.5767 124.654 90.27C124.487 89.9633 124.257 89.72 123.964 89.54C123.677 89.36 123.354 89.27 122.994 89.27C122.634 89.27 122.307 89.36 122.014 89.54C121.727 89.72 121.497 89.9633 121.324 90.27C121.151 90.5767 121.064 90.9233 121.064 91.31C121.064 91.6967 121.151 92.0467 121.324 92.36C121.497 92.6733 121.727 92.92 122.014 93.1C122.307 93.28 122.634 93.37 122.994 93.37ZM127.037 94V88.64H127.787V89.68L127.617 89.64C127.75 89.2933 127.967 89.02 128.267 88.82C128.573 88.62 128.927 88.52 129.327 88.52C129.707 88.52 130.047 88.6067 130.347 88.78C130.653 88.9533 130.893 89.1933 131.067 89.5C131.247 89.8 131.337 90.14 131.337 90.52V94H130.587V90.81C130.587 90.4833 130.527 90.2067 130.407 89.98C130.293 89.7533 130.13 89.58 129.917 89.46C129.71 89.3333 129.47 89.27 129.197 89.27C128.923 89.27 128.68 89.3333 128.467 89.46C128.253 89.58 128.087 89.7567 127.967 89.99C127.847 90.2167 127.787 90.49 127.787 90.81V94H127.037ZM134.819 94.06C134.339 94.06 133.969 93.92 133.709 93.64C133.449 93.36 133.319 92.96 133.319 92.44V89.39H132.329V88.64H132.579C132.806 88.64 132.986 88.5667 133.119 88.42C133.252 88.2667 133.319 88.0767 133.319 87.85V87.4H134.069V88.64H135.249V89.39H134.069V92.44C134.069 92.62 134.096 92.78 134.149 92.92C134.202 93.0533 134.292 93.16 134.419 93.24C134.552 93.32 134.729 93.36 134.949 93.36C135.002 93.36 135.066 93.3567 135.139 93.35C135.212 93.3433 135.276 93.3367 135.329 93.33V94C135.249 94.02 135.159 94.0333 135.059 94.04C134.959 94.0533 134.879 94.06 134.819 94.06ZM138.098 94.12C137.758 94.12 137.455 94.0567 137.188 93.93C136.922 93.7967 136.712 93.6167 136.558 93.39C136.405 93.1633 136.328 92.9033 136.328 92.61C136.328 92.33 136.388 92.0767 136.508 91.85C136.628 91.6167 136.815 91.42 137.068 91.26C137.322 91.1 137.645 90.9867 138.038 90.92L140.138 90.57V91.25L138.218 91.57C137.832 91.6367 137.552 91.76 137.378 91.94C137.212 92.12 137.128 92.3333 137.128 92.58C137.128 92.82 137.222 93.0233 137.408 93.19C137.602 93.3567 137.848 93.44 138.148 93.44C138.515 93.44 138.835 93.3633 139.108 93.21C139.382 93.05 139.595 92.8367 139.748 92.57C139.902 92.3033 139.978 92.0067 139.978 91.68V90.32C139.978 90 139.862 89.74 139.628 89.54C139.395 89.34 139.092 89.24 138.718 89.24C138.392 89.24 138.105 89.3233 137.858 89.49C137.612 89.65 137.428 89.86 137.308 90.12L136.628 89.75C136.728 89.5233 136.885 89.3167 137.098 89.13C137.318 88.9433 137.568 88.7967 137.848 88.69C138.128 88.5767 138.418 88.52 138.718 88.52C139.112 88.52 139.458 88.5967 139.758 88.75C140.065 88.9033 140.302 89.1167 140.468 89.39C140.642 89.6567 140.728 89.9667 140.728 90.32V94H139.978V92.93L140.088 93.04C139.995 93.24 139.848 93.4233 139.648 93.59C139.455 93.75 139.225 93.88 138.958 93.98C138.698 94.0733 138.412 94.12 138.098 94.12ZM144.721 94.12C144.194 94.12 143.731 93.9967 143.331 93.75C142.931 93.5033 142.618 93.17 142.391 92.75C142.164 92.3233 142.051 91.8433 142.051 91.31C142.051 90.7767 142.164 90.3 142.391 89.88C142.618 89.46 142.931 89.13 143.331 88.89C143.731 88.6433 144.194 88.52 144.721 88.52C145.054 88.52 145.368 88.58 145.661 88.7C145.954 88.82 146.214 88.9833 146.441 89.19C146.668 89.39 146.838 89.6233 146.951 89.89L146.271 90.24C146.138 89.9533 145.934 89.72 145.661 89.54C145.388 89.36 145.074 89.27 144.721 89.27C144.368 89.27 144.048 89.36 143.761 89.54C143.481 89.7133 143.258 89.9567 143.091 90.27C142.931 90.5767 142.851 90.9267 142.851 91.32C142.851 91.7067 142.931 92.0567 143.091 92.37C143.258 92.6767 143.481 92.92 143.761 93.1C144.048 93.28 144.368 93.37 144.721 93.37C145.074 93.37 145.384 93.28 145.651 93.1C145.924 92.92 146.131 92.68 146.271 92.38L146.951 92.75C146.838 93.01 146.668 93.2433 146.441 93.45C146.214 93.6567 145.954 93.82 145.661 93.94C145.368 94.06 145.054 94.12 144.721 94.12ZM150.317 94.06C149.837 94.06 149.467 93.92 149.207 93.64C148.947 93.36 148.817 92.96 148.817 92.44V89.39H147.827V88.64H148.077C148.304 88.64 148.484 88.5667 148.617 88.42C148.75 88.2667 148.817 88.0767 148.817 87.85V87.4H149.567V88.64H150.747V89.39H149.567V92.44C149.567 92.62 149.594 92.78 149.647 92.92C149.7 93.0533 149.79 93.16 149.917 93.24C150.05 93.32 150.227 93.36 150.447 93.36C150.5 93.36 150.564 93.3567 150.637 93.35C150.71 93.3433 150.774 93.3367 150.827 93.33V94C150.747 94.02 150.657 94.0333 150.557 94.04C150.457 94.0533 150.377 94.06 150.317 94.06ZM154.389 94.12C153.889 94.12 153.435 94 153.029 93.76C152.629 93.5133 152.312 93.1767 152.079 92.75C151.845 92.3233 151.729 91.84 151.729 91.3C151.729 90.76 151.842 90.2833 152.069 89.87C152.295 89.45 152.602 89.12 152.989 88.88C153.382 88.64 153.822 88.52 154.309 88.52C154.695 88.52 155.039 88.5933 155.339 88.74C155.645 88.88 155.905 89.0733 156.119 89.32C156.332 89.56 156.495 89.8333 156.609 90.14C156.722 90.44 156.779 90.75 156.779 91.07C156.779 91.1367 156.775 91.2133 156.769 91.3C156.762 91.38 156.752 91.4633 156.739 91.55H152.209V90.85H156.309L155.949 91.15C156.009 90.7833 155.965 90.4567 155.819 90.17C155.679 89.8767 155.475 89.6467 155.209 89.48C154.942 89.3067 154.642 89.22 154.309 89.22C153.975 89.22 153.665 89.3067 153.379 89.48C153.099 89.6533 152.879 89.8967 152.719 90.21C152.559 90.5167 152.495 90.8833 152.529 91.31C152.495 91.7367 152.562 92.11 152.729 92.43C152.902 92.7433 153.135 92.9867 153.429 93.16C153.729 93.3333 154.049 93.42 154.389 93.42C154.782 93.42 155.112 93.3267 155.379 93.14C155.645 92.9533 155.862 92.72 156.029 92.44L156.669 92.78C156.562 93.02 156.399 93.2433 156.179 93.45C155.959 93.65 155.695 93.8133 155.389 93.94C155.089 94.06 154.755 94.12 154.389 94.12ZM160.521 94.12C160.021 94.12 159.571 94 159.171 93.76C158.771 93.5133 158.454 93.18 158.221 92.76C157.994 92.3333 157.881 91.8533 157.881 91.32C157.881 90.78 157.994 90.3 158.221 89.88C158.454 89.46 158.768 89.13 159.161 88.89C159.561 88.6433 160.014 88.52 160.521 88.52C160.981 88.52 161.391 88.62 161.751 88.82C162.111 89.02 162.394 89.29 162.601 89.63L162.481 89.84V86.43H163.231V94H162.481V92.8L162.601 92.91C162.414 93.2967 162.134 93.5967 161.761 93.81C161.394 94.0167 160.981 94.12 160.521 94.12ZM160.561 93.37C160.921 93.37 161.244 93.28 161.531 93.1C161.824 92.92 162.054 92.6767 162.221 92.37C162.394 92.0567 162.481 91.7067 162.481 91.32C162.481 90.9333 162.394 90.5867 162.221 90.28C162.054 89.9667 161.824 89.72 161.531 89.54C161.244 89.36 160.921 89.27 160.561 89.27C160.208 89.27 159.888 89.36 159.601 89.54C159.314 89.72 159.088 89.9633 158.921 90.27C158.761 90.5767 158.681 90.9267 158.681 91.32C158.681 91.7067 158.761 92.0567 158.921 92.37C159.088 92.6767 159.311 92.92 159.591 93.1C159.878 93.28 160.201 93.37 160.561 93.37Z" fill="#001B44"/>
<path d="M37 106H239L224.362 158H51.6377L37 106Z" fill="#00FFA2"/>
<path d="M133.561 129.168C132.852 129.168 132.222 129.019 131.671 128.72C131.13 128.412 130.705 128.001 130.397 127.488C130.089 126.965 129.935 126.373 129.935 125.71C129.935 125.374 129.968 125.038 130.033 124.702C130.108 124.366 130.238 124.007 130.425 123.624C130.621 123.241 130.901 122.817 131.265 122.35L134.177 118.57H136.445L132.903 123.12L132.595 122.784C132.726 122.681 132.861 122.602 133.001 122.546C133.141 122.481 133.281 122.434 133.421 122.406C133.57 122.378 133.724 122.364 133.883 122.364C134.518 122.364 135.082 122.509 135.577 122.798C136.072 123.087 136.459 123.484 136.739 123.988C137.028 124.483 137.173 125.043 137.173 125.668C137.173 126.34 137.019 126.942 136.711 127.474C136.403 127.997 135.974 128.412 135.423 128.72C134.882 129.019 134.261 129.168 133.561 129.168ZM133.561 127.446C133.878 127.446 134.163 127.376 134.415 127.236C134.676 127.087 134.882 126.877 135.031 126.606C135.19 126.335 135.269 126.032 135.269 125.696C135.269 125.341 135.19 125.038 135.031 124.786C134.882 124.525 134.681 124.319 134.429 124.17C134.177 124.021 133.888 123.946 133.561 123.946C133.244 123.946 132.954 124.021 132.693 124.17C132.432 124.319 132.222 124.525 132.063 124.786C131.914 125.038 131.839 125.341 131.839 125.696C131.839 126.032 131.914 126.335 132.063 126.606C132.222 126.877 132.432 127.087 132.693 127.236C132.954 127.376 133.244 127.446 133.561 127.446ZM142.711 129.168C141.88 129.168 141.152 128.944 140.527 128.496C139.902 128.048 139.412 127.418 139.057 126.606C138.712 125.794 138.539 124.851 138.539 123.778C138.539 122.695 138.712 121.753 139.057 120.95C139.402 120.147 139.888 119.522 140.513 119.074C141.138 118.626 141.866 118.402 142.697 118.402C143.546 118.402 144.279 118.626 144.895 119.074C145.52 119.522 146.01 120.152 146.365 120.964C146.72 121.767 146.897 122.705 146.897 123.778C146.897 124.851 146.72 125.794 146.365 126.606C146.02 127.409 145.534 128.039 144.909 128.496C144.284 128.944 143.551 129.168 142.711 129.168ZM142.725 127.432C143.201 127.432 143.607 127.287 143.943 126.998C144.279 126.699 144.536 126.279 144.713 125.738C144.9 125.187 144.993 124.534 144.993 123.778C144.993 123.022 144.9 122.373 144.713 121.832C144.536 121.281 144.274 120.861 143.929 120.572C143.593 120.283 143.182 120.138 142.697 120.138C142.23 120.138 141.829 120.283 141.493 120.572C141.157 120.861 140.896 121.281 140.709 121.832C140.532 122.373 140.443 123.022 140.443 123.778C140.443 124.525 140.532 125.173 140.709 125.724C140.896 126.265 141.157 126.685 141.493 126.984C141.838 127.283 142.249 127.432 142.725 127.432Z" fill="#001B44"/>
<path d="M98.0075 147L100.727 139.55H101.587L104.307 147H103.467L102.827 145.18H99.4975L98.8475 147H98.0075ZM99.7575 144.43H102.547L101.037 140.15H101.277L99.7575 144.43ZM105.301 147V139.55H107.861C108.348 139.55 108.774 139.647 109.141 139.84C109.508 140.027 109.791 140.293 109.991 140.64C110.198 140.98 110.301 141.377 110.301 141.83C110.301 142.283 110.198 142.68 109.991 143.02C109.791 143.36 109.508 143.627 109.141 143.82C108.781 144.007 108.354 144.1 107.861 144.1H106.101V147H105.301ZM106.101 143.35H107.901C108.221 143.35 108.501 143.29 108.741 143.17C108.981 143.043 109.168 142.867 109.301 142.64C109.434 142.407 109.501 142.133 109.501 141.82C109.501 141.507 109.434 141.237 109.301 141.01C109.168 140.783 108.981 140.61 108.741 140.49C108.501 140.363 108.221 140.3 107.901 140.3H106.101V143.35ZM111.727 147V139.55H114.287C114.773 139.55 115.2 139.647 115.567 139.84C115.933 140.027 116.217 140.293 116.417 140.64C116.623 140.98 116.727 141.377 116.727 141.83C116.727 142.283 116.623 142.68 116.417 143.02C116.217 143.36 115.933 143.627 115.567 143.82C115.207 144.007 114.78 144.1 114.287 144.1H112.527V147H111.727ZM112.527 143.35H114.327C114.647 143.35 114.927 143.29 115.167 143.17C115.407 143.043 115.593 142.867 115.727 142.64C115.86 142.407 115.927 142.133 115.927 141.82C115.927 141.507 115.86 141.237 115.727 141.01C115.593 140.783 115.407 140.61 115.167 140.49C114.927 140.363 114.647 140.3 114.327 140.3H112.527V143.35ZM119.442 147V140.3H117.382V139.55H122.282V140.3H120.242V147H119.442ZM122.717 147V145.9H123.517V147H122.717ZM129.637 147.12C129.164 147.12 128.734 147.03 128.347 146.85C127.96 146.67 127.634 146.43 127.367 146.13C127.1 145.823 126.91 145.487 126.797 145.12L127.517 144.85C127.69 145.357 127.96 145.743 128.327 146.01C128.694 146.27 129.13 146.4 129.637 146.4C129.957 146.4 130.237 146.35 130.477 146.25C130.724 146.143 130.914 145.997 131.047 145.81C131.18 145.623 131.247 145.407 131.247 145.16C131.247 144.793 131.147 144.51 130.947 144.31C130.747 144.11 130.46 143.957 130.087 143.85L128.747 143.45C128.22 143.297 127.814 143.04 127.527 142.68C127.247 142.32 127.107 141.91 127.107 141.45C127.107 141.057 127.204 140.71 127.397 140.41C127.59 140.103 127.854 139.863 128.187 139.69C128.527 139.517 128.91 139.43 129.337 139.43C129.784 139.43 130.184 139.513 130.537 139.68C130.897 139.84 131.2 140.053 131.447 140.32C131.694 140.587 131.87 140.883 131.977 141.21L131.277 141.49C131.117 141.05 130.867 140.717 130.527 140.49C130.194 140.263 129.8 140.15 129.347 140.15C129.06 140.15 128.807 140.2 128.587 140.3C128.374 140.4 128.207 140.543 128.087 140.73C127.967 140.917 127.907 141.137 127.907 141.39C127.907 141.697 128.004 141.973 128.197 142.22C128.39 142.46 128.687 142.64 129.087 142.76L130.267 143.11C130.854 143.283 131.297 143.533 131.597 143.86C131.897 144.187 132.047 144.597 132.047 145.09C132.047 145.49 131.944 145.843 131.737 146.15C131.537 146.45 131.254 146.687 130.887 146.86C130.527 147.033 130.11 147.12 129.637 147.12ZM135.932 147.12C135.405 147.12 134.942 146.997 134.542 146.75C134.142 146.503 133.829 146.17 133.602 145.75C133.375 145.323 133.262 144.843 133.262 144.31C133.262 143.777 133.375 143.3 133.602 142.88C133.829 142.46 134.142 142.13 134.542 141.89C134.942 141.643 135.405 141.52 135.932 141.52C136.265 141.52 136.579 141.58 136.872 141.7C137.165 141.82 137.425 141.983 137.652 142.19C137.879 142.39 138.049 142.623 138.162 142.89L137.482 143.24C137.349 142.953 137.145 142.72 136.872 142.54C136.599 142.36 136.285 142.27 135.932 142.27C135.579 142.27 135.259 142.36 134.972 142.54C134.692 142.713 134.469 142.957 134.302 143.27C134.142 143.577 134.062 143.927 134.062 144.32C134.062 144.707 134.142 145.057 134.302 145.37C134.469 145.677 134.692 145.92 134.972 146.1C135.259 146.28 135.579 146.37 135.932 146.37C136.285 146.37 136.595 146.28 136.862 146.1C137.135 145.92 137.342 145.68 137.482 145.38L138.162 145.75C138.049 146.01 137.879 146.243 137.652 146.45C137.425 146.657 137.165 146.82 136.872 146.94C136.579 147.06 136.265 147.12 135.932 147.12ZM139.478 147V139.43H140.228V142.68L140.058 142.64C140.191 142.293 140.408 142.02 140.708 141.82C141.015 141.62 141.368 141.52 141.768 141.52C142.148 141.52 142.488 141.607 142.788 141.78C143.095 141.953 143.335 142.193 143.508 142.5C143.688 142.8 143.778 143.14 143.778 143.52V147H143.028V143.81C143.028 143.483 142.968 143.207 142.848 142.98C142.728 142.753 142.561 142.58 142.348 142.46C142.141 142.333 141.905 142.27 141.638 142.27C141.371 142.27 141.131 142.333 140.918 142.46C140.705 142.58 140.535 142.757 140.408 142.99C140.288 143.217 140.228 143.49 140.228 143.81V147H139.478ZM147.65 147.12C147.15 147.12 146.697 147 146.29 146.76C145.89 146.513 145.574 146.177 145.34 145.75C145.107 145.323 144.99 144.84 144.99 144.3C144.99 143.76 145.104 143.283 145.33 142.87C145.557 142.45 145.864 142.12 146.25 141.88C146.644 141.64 147.084 141.52 147.57 141.52C147.957 141.52 148.3 141.593 148.6 141.74C148.907 141.88 149.167 142.073 149.38 142.32C149.594 142.56 149.757 142.833 149.87 143.14C149.984 143.44 150.04 143.75 150.04 144.07C150.04 144.137 150.037 144.213 150.03 144.3C150.024 144.38 150.014 144.463 150 144.55H145.47V143.85H149.57L149.21 144.15C149.27 143.783 149.227 143.457 149.08 143.17C148.94 142.877 148.737 142.647 148.47 142.48C148.204 142.307 147.904 142.22 147.57 142.22C147.237 142.22 146.927 142.307 146.64 142.48C146.36 142.653 146.14 142.897 145.98 143.21C145.82 143.517 145.757 143.883 145.79 144.31C145.757 144.737 145.824 145.11 145.99 145.43C146.164 145.743 146.397 145.987 146.69 146.16C146.99 146.333 147.31 146.42 147.65 146.42C148.044 146.42 148.374 146.327 148.64 146.14C148.907 145.953 149.124 145.72 149.29 145.44L149.93 145.78C149.824 146.02 149.66 146.243 149.44 146.45C149.22 146.65 148.957 146.813 148.65 146.94C148.35 147.06 148.017 147.12 147.65 147.12ZM153.783 147.12C153.283 147.12 152.833 147 152.433 146.76C152.033 146.513 151.716 146.18 151.483 145.76C151.256 145.333 151.143 144.853 151.143 144.32C151.143 143.78 151.256 143.3 151.483 142.88C151.716 142.46 152.029 142.13 152.423 141.89C152.823 141.643 153.276 141.52 153.783 141.52C154.243 141.52 154.653 141.62 155.013 141.82C155.373 142.02 155.656 142.29 155.863 142.63L155.743 142.84V139.43H156.493V147H155.743V145.8L155.863 145.91C155.676 146.297 155.396 146.597 155.023 146.81C154.656 147.017 154.243 147.12 153.783 147.12ZM153.823 146.37C154.183 146.37 154.506 146.28 154.793 146.1C155.086 145.92 155.316 145.677 155.483 145.37C155.656 145.057 155.743 144.707 155.743 144.32C155.743 143.933 155.656 143.587 155.483 143.28C155.316 142.967 155.086 142.72 154.793 142.54C154.506 142.36 154.183 142.27 153.823 142.27C153.469 142.27 153.149 142.36 152.863 142.54C152.576 142.72 152.349 142.963 152.183 143.27C152.023 143.577 151.943 143.927 151.943 144.32C151.943 144.707 152.023 145.057 152.183 145.37C152.349 145.677 152.573 145.92 152.853 146.1C153.139 146.28 153.463 146.37 153.823 146.37ZM159.933 147.12C159.559 147.12 159.219 147.033 158.913 146.86C158.606 146.68 158.363 146.433 158.183 146.12C158.009 145.8 157.923 145.433 157.923 145.02V141.64H158.673V144.93C158.673 145.217 158.729 145.47 158.843 145.69C158.963 145.903 159.126 146.07 159.333 146.19C159.546 146.31 159.789 146.37 160.063 146.37C160.336 146.37 160.579 146.31 160.793 146.19C161.006 146.063 161.173 145.887 161.293 145.66C161.413 145.427 161.473 145.15 161.473 144.83V141.64H162.223V147H161.473V145.96L161.643 146C161.516 146.347 161.299 146.62 160.993 146.82C160.686 147.02 160.333 147.12 159.933 147.12ZM163.765 147V139.43H164.515V147H163.765ZM168.49 147.12C167.99 147.12 167.537 147 167.13 146.76C166.73 146.513 166.414 146.177 166.18 145.75C165.947 145.323 165.83 144.84 165.83 144.3C165.83 143.76 165.944 143.283 166.17 142.87C166.397 142.45 166.704 142.12 167.09 141.88C167.484 141.64 167.924 141.52 168.41 141.52C168.797 141.52 169.14 141.593 169.44 141.74C169.747 141.88 170.007 142.073 170.22 142.32C170.434 142.56 170.597 142.833 170.71 143.14C170.824 143.44 170.88 143.75 170.88 144.07C170.88 144.137 170.877 144.213 170.87 144.3C170.864 144.38 170.854 144.463 170.84 144.55H166.31V143.85H170.41L170.05 144.15C170.11 143.783 170.067 143.457 169.92 143.17C169.78 142.877 169.577 142.647 169.31 142.48C169.044 142.307 168.744 142.22 168.41 142.22C168.077 142.22 167.767 142.307 167.48 142.48C167.2 142.653 166.98 142.897 166.82 143.21C166.66 143.517 166.597 143.883 166.63 144.31C166.597 144.737 166.664 145.11 166.83 145.43C167.004 145.743 167.237 145.987 167.53 146.16C167.83 146.333 168.15 146.42 168.49 146.42C168.884 146.42 169.214 146.327 169.48 146.14C169.747 145.953 169.964 145.72 170.13 145.44L170.77 145.78C170.664 146.02 170.5 146.243 170.28 146.45C170.06 146.65 169.797 146.813 169.49 146.94C169.19 147.06 168.857 147.12 168.49 147.12ZM174.623 147.12C174.123 147.12 173.673 147 173.273 146.76C172.873 146.513 172.556 146.18 172.323 145.76C172.096 145.333 171.983 144.853 171.983 144.32C171.983 143.78 172.096 143.3 172.323 142.88C172.556 142.46 172.869 142.13 173.263 141.89C173.663 141.643 174.116 141.52 174.623 141.52C175.083 141.52 175.493 141.62 175.853 141.82C176.213 142.02 176.496 142.29 176.703 142.63L176.583 142.84V139.43H177.333V147H176.583V145.8L176.703 145.91C176.516 146.297 176.236 146.597 175.863 146.81C175.496 147.017 175.083 147.12 174.623 147.12ZM174.663 146.37C175.023 146.37 175.346 146.28 175.633 146.1C175.926 145.92 176.156 145.677 176.323 145.37C176.496 145.057 176.583 144.707 176.583 144.32C176.583 143.933 176.496 143.587 176.323 143.28C176.156 142.967 175.926 142.72 175.633 142.54C175.346 142.36 175.023 142.27 174.663 142.27C174.309 142.27 173.989 142.36 173.703 142.54C173.416 142.72 173.189 142.963 173.023 143.27C172.863 143.577 172.783 143.927 172.783 144.32C172.783 144.707 172.863 145.057 173.023 145.37C173.189 145.677 173.413 145.92 173.693 146.1C173.979 146.28 174.303 146.37 174.663 146.37Z" fill="#001B44"/>
<path d="M52 159H224L211.536 211H64.4638L52 159Z" fill="#219FFF"/>
<path d="M130.661 182V180.558L133.489 177.604C134.049 177.016 134.478 176.549 134.777 176.204C135.085 175.849 135.299 175.546 135.421 175.294C135.542 175.042 135.603 174.785 135.603 174.524C135.603 174.085 135.463 173.74 135.183 173.488C134.912 173.236 134.562 173.11 134.133 173.11C133.685 173.11 133.297 173.241 132.971 173.502C132.644 173.754 132.406 174.127 132.257 174.622L130.591 174.104C130.703 173.553 130.931 173.077 131.277 172.676C131.622 172.265 132.042 171.953 132.537 171.738C133.041 171.514 133.573 171.402 134.133 171.402C134.805 171.402 135.393 171.523 135.897 171.766C136.41 172.009 136.807 172.349 137.087 172.788C137.376 173.227 137.521 173.74 137.521 174.328C137.521 174.701 137.451 175.07 137.311 175.434C137.171 175.798 136.961 176.171 136.681 176.554C136.401 176.927 136.037 177.347 135.589 177.814L133.139 180.39H137.661V182H130.661ZM142.528 182.168C141.977 182.168 141.45 182.065 140.946 181.86C140.451 181.655 140.022 181.365 139.658 180.992C139.303 180.609 139.061 180.157 138.93 179.634L140.582 179.046C140.741 179.522 140.997 179.877 141.352 180.11C141.707 180.334 142.099 180.446 142.528 180.446C142.883 180.446 143.195 180.371 143.466 180.222C143.746 180.063 143.961 179.849 144.11 179.578C144.259 179.298 144.334 178.976 144.334 178.612C144.334 178.248 144.255 177.931 144.096 177.66C143.947 177.389 143.737 177.179 143.466 177.03C143.195 176.871 142.883 176.792 142.528 176.792C142.164 176.792 141.833 176.871 141.534 177.03C141.245 177.189 141.035 177.417 140.904 177.716L139.35 177.366L140.176 171.57H145.86V173.18H140.932L141.646 172.354L141.058 176.722L140.512 176.274C140.773 175.891 141.091 175.611 141.464 175.434C141.847 175.257 142.309 175.168 142.85 175.168C143.541 175.168 144.138 175.317 144.642 175.616C145.155 175.915 145.552 176.321 145.832 176.834C146.112 177.347 146.252 177.94 146.252 178.612C146.252 179.284 146.089 179.891 145.762 180.432C145.435 180.973 144.992 181.398 144.432 181.706C143.872 182.014 143.237 182.168 142.528 182.168Z" fill="white"/>
<path d="M128.267 200L125.537 192.55H126.367L128.767 199.29H128.607L130.997 192.55H131.837L129.107 200H128.267ZM132.72 200V194.64H133.47V200H132.72ZM132.72 193.65V192.55H133.47V193.65H132.72ZM136.865 200.12C136.352 200.12 135.902 199.99 135.515 199.73C135.129 199.47 134.849 199.117 134.675 198.67L135.305 198.37C135.459 198.697 135.672 198.957 135.945 199.15C136.225 199.343 136.532 199.44 136.865 199.44C137.185 199.44 137.455 199.363 137.675 199.21C137.895 199.05 138.005 198.843 138.005 198.59C138.005 198.403 137.952 198.257 137.845 198.15C137.739 198.037 137.615 197.95 137.475 197.89C137.335 197.83 137.212 197.787 137.105 197.76L136.335 197.54C135.842 197.4 135.485 197.203 135.265 196.95C135.045 196.697 134.935 196.403 134.935 196.07C134.935 195.757 135.015 195.483 135.175 195.25C135.335 195.017 135.552 194.837 135.825 194.71C136.099 194.583 136.402 194.52 136.735 194.52C137.189 194.52 137.599 194.64 137.965 194.88C138.339 195.113 138.602 195.44 138.755 195.86L138.115 196.16C137.982 195.86 137.789 195.627 137.535 195.46C137.289 195.287 137.012 195.2 136.705 195.2C136.405 195.2 136.165 195.277 135.985 195.43C135.805 195.583 135.715 195.777 135.715 196.01C135.715 196.19 135.762 196.333 135.855 196.44C135.949 196.547 136.055 196.627 136.175 196.68C136.302 196.733 136.412 196.773 136.505 196.8L137.395 197.06C137.829 197.187 138.165 197.383 138.405 197.65C138.652 197.917 138.775 198.23 138.775 198.59C138.775 198.883 138.692 199.147 138.525 199.38C138.365 199.613 138.142 199.797 137.855 199.93C137.569 200.057 137.239 200.12 136.865 200.12ZM140.093 200V194.64H140.843V200H140.093ZM140.093 193.65V192.55H140.843V193.65H140.093ZM144.428 200.06C143.948 200.06 143.578 199.92 143.318 199.64C143.058 199.36 142.928 198.96 142.928 198.44V195.39H141.938V194.64H142.188C142.415 194.64 142.595 194.567 142.728 194.42C142.862 194.267 142.928 194.077 142.928 193.85V193.4H143.678V194.64H144.858V195.39H143.678V198.44C143.678 198.62 143.705 198.78 143.758 198.92C143.812 199.053 143.902 199.16 144.028 199.24C144.162 199.32 144.338 199.36 144.558 199.36C144.612 199.36 144.675 199.357 144.748 199.35C144.822 199.343 144.885 199.337 144.938 199.33V200C144.858 200.02 144.768 200.033 144.668 200.04C144.568 200.053 144.488 200.06 144.428 200.06ZM148.115 200.12C147.602 200.12 147.152 199.99 146.765 199.73C146.379 199.47 146.099 199.117 145.925 198.67L146.555 198.37C146.709 198.697 146.922 198.957 147.195 199.15C147.475 199.343 147.782 199.44 148.115 199.44C148.435 199.44 148.705 199.363 148.925 199.21C149.145 199.05 149.255 198.843 149.255 198.59C149.255 198.403 149.202 198.257 149.095 198.15C148.989 198.037 148.865 197.95 148.725 197.89C148.585 197.83 148.462 197.787 148.355 197.76L147.585 197.54C147.092 197.4 146.735 197.203 146.515 196.95C146.295 196.697 146.185 196.403 146.185 196.07C146.185 195.757 146.265 195.483 146.425 195.25C146.585 195.017 146.802 194.837 147.075 194.71C147.349 194.583 147.652 194.52 147.985 194.52C148.439 194.52 148.849 194.64 149.215 194.88C149.589 195.113 149.852 195.44 150.005 195.86L149.365 196.16C149.232 195.86 149.039 195.627 148.785 195.46C148.539 195.287 148.262 195.2 147.955 195.2C147.655 195.2 147.415 195.277 147.235 195.43C147.055 195.583 146.965 195.777 146.965 196.01C146.965 196.19 147.012 196.333 147.105 196.44C147.199 196.547 147.305 196.627 147.425 196.68C147.552 196.733 147.662 196.773 147.755 196.8L148.645 197.06C149.079 197.187 149.415 197.383 149.655 197.65C149.902 197.917 150.025 198.23 150.025 198.59C150.025 198.883 149.942 199.147 149.775 199.38C149.615 199.613 149.392 199.797 149.105 199.93C148.819 200.057 148.489 200.12 148.115 200.12Z" fill="white"/>
<path d="M65 212H212L201.348 264H75.6522L65 212Z" fill="#17BD8D"/>
<path d="M133.792 235V226.194H131.776V224.57H135.696V235H133.792ZM141.175 235.168C140.624 235.168 140.097 235.065 139.593 234.86C139.098 234.655 138.669 234.365 138.305 233.992C137.95 233.609 137.707 233.157 137.577 232.634L139.229 232.046C139.387 232.522 139.644 232.877 139.999 233.11C140.353 233.334 140.745 233.446 141.175 233.446C141.529 233.446 141.842 233.371 142.113 233.222C142.393 233.063 142.607 232.849 142.757 232.578C142.906 232.298 142.981 231.976 142.981 231.612C142.981 231.248 142.901 230.931 142.743 230.66C142.593 230.389 142.383 230.179 142.113 230.03C141.842 229.871 141.529 229.792 141.175 229.792C140.811 229.792 140.479 229.871 140.181 230.03C139.891 230.189 139.681 230.417 139.551 230.716L137.997 230.366L138.823 224.57H144.507V226.18H139.579L140.293 225.354L139.705 229.722L139.159 229.274C139.42 228.891 139.737 228.611 140.111 228.434C140.493 228.257 140.955 228.168 141.497 228.168C142.187 228.168 142.785 228.317 143.289 228.616C143.802 228.915 144.199 229.321 144.479 229.834C144.759 230.347 144.899 230.94 144.899 231.612C144.899 232.284 144.735 232.891 144.409 233.432C144.082 233.973 143.639 234.398 143.079 234.706C142.519 235.014 141.884 235.168 141.175 235.168Z" fill="white"/>
<path d="M130.404 253.12C129.93 253.12 129.5 253.03 129.114 252.85C128.727 252.67 128.4 252.43 128.134 252.13C127.867 251.823 127.677 251.487 127.564 251.12L128.284 250.85C128.457 251.357 128.727 251.743 129.094 252.01C129.46 252.27 129.897 252.4 130.404 252.4C130.724 252.4 131.004 252.35 131.244 252.25C131.49 252.143 131.68 251.997 131.814 251.81C131.947 251.623 132.014 251.407 132.014 251.16C132.014 250.793 131.914 250.51 131.714 250.31C131.514 250.11 131.227 249.957 130.854 249.85L129.514 249.45C128.987 249.297 128.58 249.04 128.294 248.68C128.014 248.32 127.874 247.91 127.874 247.45C127.874 247.057 127.97 246.71 128.164 246.41C128.357 246.103 128.62 245.863 128.954 245.69C129.294 245.517 129.677 245.43 130.104 245.43C130.55 245.43 130.95 245.513 131.304 245.68C131.664 245.84 131.967 246.053 132.214 246.32C132.46 246.587 132.637 246.883 132.744 247.21L132.044 247.49C131.884 247.05 131.634 246.717 131.294 246.49C130.96 246.263 130.567 246.15 130.114 246.15C129.827 246.15 129.574 246.2 129.354 246.3C129.14 246.4 128.974 246.543 128.854 246.73C128.734 246.917 128.674 247.137 128.674 247.39C128.674 247.697 128.77 247.973 128.964 248.22C129.157 248.46 129.454 248.64 129.854 248.76L131.034 249.11C131.62 249.283 132.064 249.533 132.364 249.86C132.664 250.187 132.814 250.597 132.814 251.09C132.814 251.49 132.71 251.843 132.504 252.15C132.304 252.45 132.02 252.687 131.654 252.86C131.294 253.033 130.877 253.12 130.404 253.12ZM136.759 253.12C136.252 253.12 135.792 253 135.379 252.76C134.965 252.513 134.635 252.18 134.389 251.76C134.149 251.333 134.029 250.85 134.029 250.31C134.029 249.777 134.149 249.3 134.389 248.88C134.629 248.46 134.952 248.13 135.359 247.89C135.772 247.643 136.239 247.52 136.759 247.52C137.279 247.52 137.742 247.64 138.149 247.88C138.562 248.12 138.885 248.45 139.119 248.87C139.359 249.29 139.479 249.77 139.479 250.31C139.479 250.857 139.355 251.343 139.109 251.77C138.862 252.19 138.532 252.52 138.119 252.76C137.712 253 137.259 253.12 136.759 253.12ZM136.759 252.37C137.119 252.37 137.442 252.28 137.729 252.1C138.022 251.92 138.252 251.673 138.419 251.36C138.592 251.047 138.679 250.697 138.679 250.31C138.679 249.923 138.592 249.577 138.419 249.27C138.252 248.963 138.022 248.72 137.729 248.54C137.442 248.36 137.119 248.27 136.759 248.27C136.399 248.27 136.072 248.36 135.779 248.54C135.492 248.72 135.262 248.963 135.089 249.27C134.915 249.577 134.829 249.923 134.829 250.31C134.829 250.697 134.915 251.047 135.089 251.36C135.262 251.673 135.492 251.92 135.779 252.1C136.072 252.28 136.399 252.37 136.759 252.37ZM140.801 253V245.43H141.551V253H140.801ZM145.506 253.12C145.006 253.12 144.556 253 144.156 252.76C143.756 252.513 143.44 252.18 143.206 251.76C142.98 251.333 142.866 250.853 142.866 250.32C142.866 249.78 142.98 249.3 143.206 248.88C143.44 248.46 143.753 248.13 144.146 247.89C144.546 247.643 145 247.52 145.506 247.52C145.966 247.52 146.376 247.62 146.736 247.82C147.096 248.02 147.38 248.29 147.586 248.63L147.466 248.84V245.43H148.216V253H147.466V251.8L147.586 251.91C147.4 252.297 147.12 252.597 146.746 252.81C146.38 253.017 145.966 253.12 145.506 253.12ZM145.546 252.37C145.906 252.37 146.23 252.28 146.516 252.1C146.81 251.92 147.04 251.677 147.206 251.37C147.38 251.057 147.466 250.707 147.466 250.32C147.466 249.933 147.38 249.587 147.206 249.28C147.04 248.967 146.81 248.72 146.516 248.54C146.23 248.36 145.906 248.27 145.546 248.27C145.193 248.27 144.873 248.36 144.586 248.54C144.3 248.72 144.073 248.963 143.906 249.27C143.746 249.577 143.666 249.927 143.666 250.32C143.666 250.707 143.746 251.057 143.906 251.37C144.073 251.677 144.296 251.92 144.576 252.1C144.863 252.28 145.186 252.37 145.546 252.37Z" fill="white"/>
</svg>
