<svg width="24" height="25" viewBox="0 0 24 25" fill="none" xmlns="http://www.w3.org/2000/svg">
<g clip-path="url(#clip0_915_4306)">
<path d="M24 12.7812C24 6.15383 18.6274 0.78125 12 0.78125C5.37258 0.78125 0 6.15383 0 12.7812C0 18.7707 4.3882 23.7352 10.125 24.6355V16.25H7.07812V12.7812H10.125V10.1375C10.125 7.13 11.9166 5.46875 14.6576 5.46875C15.9701 5.46875 17.3438 5.70312 17.3438 5.70312V8.65625H15.8306C14.34 8.65625 13.875 9.58133 13.875 10.5312V12.7812H17.2031L16.6711 16.25H13.875V24.6355C19.6118 23.7352 24 18.7707 24 12.7812Z" fill="#97A5C1"/>
</g>
<defs>
<clipPath id="clip0_915_4306">
<rect width="24" height="24" fill="white" transform="translate(0 0.78125)"/>
</clipPath>
</defs>
</svg>
