<svg width="96" height="97" viewBox="0 0 96 97" fill="none" xmlns="http://www.w3.org/2000/svg">
<path fill-rule="evenodd" clip-rule="evenodd" d="M48 0.781738C21.5325 0.781738 0 22.3148 0 48.7817C0 75.2487 21.5325 96.7817 48 96.7817C74.4675 96.7817 96 75.25 96 48.7817C96 22.3135 74.4675 0.781738 48 0.781738Z" fill="url(#paint0_linear_5276_1974)"/>
<path opacity="0.2" fill-rule="evenodd" clip-rule="evenodd" d="M67.3976 92.6838L67.4002 92.6825L67.4055 92.6802L67.4297 92.6697L67.4574 92.6575C67.5512 92.6165 67.6449 92.5765 67.7387 92.5341C68.0345 92.4003 68.3278 92.2617 68.6199 92.1216C74.6389 89.243 79.9952 85.1472 84.3505 80.0929C88.7058 75.0386 91.9652 69.1359 93.9229 62.7576C94.2936 61.5416 94.6162 60.306 94.8907 59.0508L71.5194 31.8301L71.76 32.1228L71.9919 32.4179L72.2145 32.7156L72.4282 33.0156L72.633 33.3181L72.8284 33.6231L73.0159 33.9305L73.1932 34.2402L73.362 34.5524L73.5212 34.8668L73.6712 35.1837L73.8124 35.5025L73.9436 35.8238L74.0664 36.1476L74.18 36.4735L74.2845 36.8018L74.3801 37.1322L74.4664 37.465L74.5434 37.7999L74.6115 38.1374L74.6704 38.4766L74.7201 38.818L74.7605 39.1615L74.7919 39.5073L74.814 39.8549L74.8267 40.2048L74.8305 40.5567L74.8251 40.9105L74.7641 41.8745L74.639 42.8388L74.4515 43.8031L74.2057 44.7666L73.9039 45.7291L73.5476 46.6898L73.1411 47.6483L72.6862 48.6046L72.1877 49.5561L71.6439 50.5045L71.0606 51.4484L70.4392 52.3872L69.783 53.3204L69.0947 54.2476L68.3767 55.168L67.6322 56.0813L66.8634 56.987L66.0731 57.8843L65.2637 58.7727L64.4387 59.6517L63.5996 60.5208L62.7499 61.3793L61.8919 62.227L61.028 63.0629L60.1616 63.8868L59.2952 64.6981L58.4308 65.4961L57.572 66.2802L56.721 67.0501L55.8804 67.8051L55.053 68.5448L54.2415 69.2684L54.0465 69.442L53.8534 69.6141L53.6619 69.7848L53.4722 69.9535L53.2847 70.1211L53.0987 70.2875L52.9144 70.4521L52.7319 70.6154L52.5514 70.7772L52.3729 70.9375L52.1964 71.0965L52.0217 71.2538L51.8492 71.4098L51.6785 71.5643L51.5098 71.7173L51.3433 71.869L51.179 72.019L51.0169 72.1677L50.8569 72.3151L50.699 72.4608L50.5434 72.6051L50.3902 72.748L50.2393 72.8896L50.0904 73.0296L49.9442 73.1684L49.8002 73.3055L49.6584 73.4412L49.5193 73.5756L49.3824 73.7086L49.2484 73.8398L49.1171 73.97L48.9877 74.0986L48.9377 74.1462L48.8855 74.1912L48.8314 74.2334L48.7751 74.2728L48.7172 74.3093L48.6579 74.3429L48.5972 74.3736L48.5347 74.4012L48.4712 74.4258L48.4067 74.4473L48.3409 74.4661L48.2743 74.4811L48.207 74.4931L48.1389 74.5015L48.0701 74.5068L48.0011 74.5085L47.9319 74.5068L47.8633 74.5015L47.7952 74.4931L47.7277 74.4813L47.6612 74.4661L47.5955 74.4473L47.5309 74.4258L47.4673 74.4012L47.4056 74.3736L44.657 71.8694L44.4905 71.7177L44.3218 71.5645L44.1512 71.41L43.9783 71.254L43.8037 71.0965L43.6269 70.9375L43.4482 70.7772L43.2679 70.6152L43.0854 70.4519L42.9011 70.2871L42.7149 70.1208L42.5274 69.952L42.3377 69.7833L42.1462 69.6125L41.9531 69.4403L41.7581 69.2665L40.9464 68.5441L40.1192 67.8046L39.2788 67.0497L38.4277 66.28L67.3976 92.6838Z" fill="#001B44"/>
<path fill-rule="evenodd" clip-rule="evenodd" d="M48.5302 30.6843L48.0002 31.2129L47.4703 30.6843C44.5593 27.7794 40.6148 26.1479 36.5023 26.1479C32.3898 26.1479 28.4453 27.7794 25.5343 30.6843C22.5332 33.6843 21.0658 37.1253 21.1757 40.9105C21.4702 51.1872 33.197 61.6372 41.7574 69.2669C43.8452 71.128 45.6489 72.7357 47.0135 74.0995C47.1429 74.2293 47.2966 74.3323 47.4659 74.4026C47.6351 74.4729 47.8166 74.5091 47.9999 74.5091C48.1832 74.5091 48.3646 74.4729 48.5339 74.4026C48.7031 74.3323 48.8569 74.2293 48.9862 74.0995C50.3512 72.7349 52.1529 71.1282 54.2407 69.2684C62.8029 61.6372 74.5282 51.1878 74.8241 40.9105C74.9323 37.1243 73.4666 33.6852 70.4655 30.6843C67.5546 27.7795 63.6102 26.1481 59.4979 26.1481C55.3855 26.1481 51.4411 27.7795 48.5302 30.6843Z" fill="white"/>
<defs>
<linearGradient id="paint0_linear_5276_1974" x1="-1.5076e-06" y1="32.268" x2="96" y2="32.268" gradientUnits="userSpaceOnUse">
<stop stop-color="#00FFA2"/>
<stop offset="1" stop-color="#FFE664"/>
</linearGradient>
</defs>
</svg>
