<svg width="24" height="25" viewBox="0 0 24 25" fill="none" xmlns="http://www.w3.org/2000/svg">
<g clip-path="url(#clip0_915_4307)">
<path d="M12 2.94219C15.2063 2.94219 15.5859 2.95625 16.8469 3.0125C18.0188 3.06406 18.6516 3.26094 19.0734 3.425C19.6313 3.64063 20.0344 3.90313 20.4516 4.32031C20.8734 4.74219 21.1313 5.14062 21.3469 5.69844C21.5109 6.12031 21.7078 6.75781 21.7594 7.925C21.8156 9.19062 21.8297 9.57031 21.8297 12.7719C21.8297 15.9781 21.8156 16.3578 21.7594 17.6188C21.7078 18.7906 21.5109 19.4234 21.3469 19.8453C21.1313 20.4031 20.8687 20.8063 20.4516 21.2234C20.0297 21.6453 19.6313 21.9031 19.0734 22.1188C18.6516 22.2828 18.0141 22.4797 16.8469 22.5312C15.5813 22.5875 15.2016 22.6016 12 22.6016C8.79375 22.6016 8.41406 22.5875 7.15313 22.5312C5.98125 22.4797 5.34844 22.2828 4.92656 22.1188C4.36875 21.9031 3.96563 21.6406 3.54844 21.2234C3.12656 20.8016 2.86875 20.4031 2.65313 19.8453C2.48906 19.4234 2.29219 18.7859 2.24063 17.6188C2.18438 16.3531 2.17031 15.9734 2.17031 12.7719C2.17031 9.56563 2.18438 9.18594 2.24063 7.925C2.29219 6.75312 2.48906 6.12031 2.65313 5.69844C2.86875 5.14062 3.13125 4.7375 3.54844 4.32031C3.97031 3.89844 4.36875 3.64063 4.92656 3.425C5.34844 3.26094 5.98594 3.06406 7.15313 3.0125C8.41406 2.95625 8.79375 2.94219 12 2.94219ZM12 0.78125C8.74219 0.78125 8.33438 0.795312 7.05469 0.851562C5.77969 0.907813 4.90313 1.11406 4.14375 1.40937C3.35156 1.71875 2.68125 2.12656 2.01563 2.79688C1.34531 3.4625 0.9375 4.13281 0.628125 4.92031C0.332812 5.68438 0.126563 6.55625 0.0703125 7.83125C0.0140625 9.11562 0 9.52344 0 12.7812C0 16.0391 0.0140625 16.4469 0.0703125 17.7266C0.126563 19.0016 0.332812 19.8781 0.628125 20.6375C0.9375 21.4297 1.34531 22.1 2.01563 22.7656C2.68125 23.4312 3.35156 23.8438 4.13906 24.1484C4.90313 24.4438 5.775 24.65 7.05 24.7062C8.32969 24.7625 8.7375 24.7766 11.9953 24.7766C15.2531 24.7766 15.6609 24.7625 16.9406 24.7062C18.2156 24.65 19.0922 24.4438 19.8516 24.1484C20.6391 23.8438 21.3094 23.4312 21.975 22.7656C22.6406 22.1 23.0531 21.4297 23.3578 20.6422C23.6531 19.8781 23.8594 19.0063 23.9156 17.7313C23.9719 16.4516 23.9859 16.0438 23.9859 12.7859C23.9859 9.52813 23.9719 9.12031 23.9156 7.84063C23.8594 6.56563 23.6531 5.68906 23.3578 4.92969C23.0625 4.13281 22.6547 3.4625 21.9844 2.79688C21.3188 2.13125 20.6484 1.71875 19.8609 1.41406C19.0969 1.11875 18.225 0.9125 16.95 0.85625C15.6656 0.795313 15.2578 0.78125 12 0.78125Z" fill="#97A5C1"/>
<path d="M12 6.61719C8.59688 6.61719 5.83594 9.37813 5.83594 12.7812C5.83594 16.1844 8.59688 18.9453 12 18.9453C15.4031 18.9453 18.1641 16.1844 18.1641 12.7812C18.1641 9.37813 15.4031 6.61719 12 6.61719ZM12 16.7797C9.79219 16.7797 8.00156 14.9891 8.00156 12.7812C8.00156 10.5734 9.79219 8.78281 12 8.78281C14.2078 8.78281 15.9984 10.5734 15.9984 12.7812C15.9984 14.9891 14.2078 16.7797 12 16.7797Z" fill="#97A5C1"/>
<path d="M19.8469 6.37339C19.8469 7.17027 19.2 7.81245 18.4078 7.81245C17.6109 7.81245 16.9688 7.16558 16.9688 6.37339C16.9688 5.57651 17.6156 4.93433 18.4078 4.93433C19.2 4.93433 19.8469 5.5812 19.8469 6.37339Z" fill="#97A5C1"/>
</g>
<defs>
<clipPath id="clip0_915_4307">
<rect width="24" height="24" fill="white" transform="translate(0 0.78125)"/>
</clipPath>
</defs>
</svg>
