<svg width="96" height="97" viewBox="0 0 96 97" fill="none" xmlns="http://www.w3.org/2000/svg">
<g clip-path="url(#clip0_913_4126)">
<path fill-rule="evenodd" clip-rule="evenodd" d="M48 0.781738C21.5327 0.781738 0 22.3144 0 48.7817C0 75.2491 21.5325 96.7817 48 96.7817C74.4675 96.7817 96 75.2496 96 48.7817C96 22.3139 74.4675 0.781738 48 0.781738Z" fill="url(#paint0_linear_913_4126)"/>
<path opacity="0.2" fill-rule="evenodd" clip-rule="evenodd" d="M92.1428 67.629C92.2287 67.4287 92.3116 67.2272 92.395 67.0256C92.6845 66.3239 92.9577 65.6139 93.2146 64.8958L93.2772 64.7197L51.7238 18.5503L51.8926 18.7526L52.0577 18.9692L52.2169 19.1992L52.3707 19.443L52.5184 19.6993L52.6598 19.9682L52.7944 20.2494L52.9225 20.5423L53.0429 20.8464L53.1554 21.1616L53.2604 21.4875L53.3569 21.8239L53.4447 22.17L53.5234 22.5262L53.5928 22.8911L53.6526 23.265L53.7021 23.6473L53.7415 24.0377L53.7698 24.4359L53.7872 24.8413L53.7932 25.2538L53.7872 25.673L53.7685 26.0985L53.7379 26.5297L53.6946 26.9664L53.6384 27.4084L53.5684 27.8552L53.4844 28.3063L53.3864 28.7615L53.2739 29.2204L53.0896 29.691L52.9161 30.1535L52.7537 30.6082L52.6024 31.055L52.4622 31.494L52.3328 31.9252L52.2145 32.3484L52.1072 32.7639L52.0111 33.1717L51.9257 33.5719L51.8507 33.9643L51.7876 34.349L51.7352 34.7265L51.6955 35.0942L51.6653 35.4564L51.6466 35.8114L51.6385 36.1588L51.6413 36.4987L51.6552 36.8315L51.6799 37.157L51.7159 37.4758L51.7628 37.7867L51.8206 38.0906L51.8896 38.3872L51.9694 38.6769L52.0604 38.9593L52.1622 39.2349L52.2747 39.5034L52.3984 39.7659L52.5332 40.0207L52.6791 40.2684L52.8361 40.5095L52.8736 40.5619L52.9127 40.6125L52.9532 40.661L52.9956 40.7081L70.8269 59.1832L70.7706 59.2817L70.7044 59.3929L70.6399 59.4969L70.5769 59.594L70.5158 59.6842L70.4564 59.768L70.399 59.8453L70.3427 59.9164L70.2893 59.9812L70.2381 60.0403L70.1892 60.0937L70.1429 60.1417L70.099 60.1843L70.0576 60.2218L70.0187 60.2542L69.9829 60.2818L69.9497 60.3049L69.9197 60.3236L69.8927 60.3379L69.8689 60.3482L69.7999 60.3752L69.7328 60.4052L69.6676 60.4378L69.6042 60.473L69.5429 60.5105L69.4834 60.5509L69.4262 60.5934L69.3711 60.6382L69.3181 60.6853L69.2672 60.7344L69.2187 60.7854L69.1726 60.8387L69.1287 60.8934L69.0874 60.9497L69.0484 61.008L69.0121 61.0678L68.9781 61.1293L68.9468 61.1919L68.9183 61.2562L68.8924 61.3215L68.8696 61.388L68.8491 61.4555L68.8319 61.524L68.8174 61.5934L68.8058 61.6637L68.7974 61.7344L68.7919 61.806L68.7895 61.878V61.9505L68.7936 62.0233L68.8009 62.0964L68.8116 62.1697L68.8377 62.3332L68.8592 62.4943L68.8765 62.6531L68.8894 62.8097L68.8977 62.9642L68.9016 63.1164V63.2664L68.8967 63.4144L68.8874 63.5604L68.8735 63.7044L68.8547 63.8464L68.8319 63.9862L68.8045 64.1244L68.7726 64.2605L68.7362 64.395L68.6956 64.5275L68.65 64.6588L68.5999 64.7876L68.5454 64.9151L68.4861 65.0407L68.4224 65.1649L68.3539 65.2873L68.2808 65.4082L68.2032 65.5275L68.1209 65.6454L68.0339 65.7619L67.9422 65.877L67.8458 65.9906L67.7447 66.1031L67.6392 66.2141L67.5286 66.3238L67.4134 66.4324L66.8479 66.8983L66.2095 67.3282L65.5022 67.7233L64.7307 68.0844L63.8993 68.4125L63.0122 68.7088L62.0747 68.9745L61.6594 69.0739L31.2957 39.8096L31.3806 39.9034L31.4556 40.0048L31.5218 40.1135L31.5781 40.2287L31.6223 40.3498L31.6547 40.476L31.6748 40.6072L31.6816 40.7419V72.4946L31.6748 72.6294L31.6547 72.7607L31.6221 72.8869L31.5779 73.008L31.5216 73.1233L31.4554 73.2319L31.3804 73.3335L31.2955 73.4272L31.2017 73.5124L31.1005 73.5883L30.9919 73.6543L30.877 73.7105L30.7562 73.7548L30.6302 73.7874L30.499 73.8073L30.3649 73.8142H24.2867L24.1521 73.8075L24.0209 73.7874L23.8945 73.755L23.7736 73.7105L23.6584 73.6552L23.5497 73.5892L23.4482 73.5142L51.3792 96.6613C51.5121 96.6519 51.6452 96.6439 51.778 96.6335C53.3867 96.5076 54.9881 96.3007 56.5759 96.0135C57.2824 95.8855 57.9835 95.7417 58.6791 95.5822C65.9683 93.9152 72.7658 90.564 78.5267 85.7972C78.5806 85.7525 78.6336 85.7072 78.6869 85.6618C80.1443 84.4473 81.5291 83.1482 82.834 81.7712C83.6965 80.861 84.5224 79.9177 85.3118 78.941C85.714 78.4445 86.1085 77.9415 86.4908 77.429C87.1723 76.5158 87.8217 75.5783 88.4389 74.6165C89.8638 72.3933 91.1027 70.0562 92.1428 67.629Z" fill="#001B44"/>
<path fill-rule="evenodd" clip-rule="evenodd" d="M71.7233 57.1038C70.9015 59.5065 70.1067 60.2585 69.8699 60.3476C69.509 60.4806 69.2059 60.7355 69.013 61.0682C68.8202 61.401 68.7496 61.7906 68.8135 62.1699C69.1135 63.9255 68.6695 65.2811 67.4155 66.432C61.7905 71.5991 42.928 70.4306 34.9759 68.7195V44.8715C36.2697 42.0871 37.9902 40.3111 39.8125 38.4375C42.9853 35.1714 46.5825 31.4698 47.896 22.0786C48.3038 19.1568 49.2188 17.8432 49.8769 17.6064C50.4372 17.4065 51.1082 17.9482 51.3717 18.1891C53.2928 19.9575 54.5548 24.3065 53.2742 29.2192C51.2492 34.2817 51.1041 37.9741 52.8357 40.5088C53.0251 40.7863 53.2949 40.9991 53.6089 41.1187C53.9229 41.2384 54.2659 41.259 54.592 41.178C66.5222 38.2125 70.342 39.714 71.556 40.871C71.8817 41.1819 72.8698 42.1252 72.3036 44.981C72.2214 45.3916 72.2995 45.8181 72.5218 46.173C73.3785 47.5438 73.1781 52.8566 71.7233 57.1042V57.1038ZM31.6815 72.4948C31.6814 72.8439 31.5429 73.1788 31.2962 73.4259C31.0496 73.6731 30.715 73.8123 30.3659 73.8131H24.2877C23.9383 73.813 23.6033 73.6742 23.3562 73.4273C23.1091 73.1804 22.9701 72.8454 22.9697 72.4961V40.7409C22.9702 40.3915 23.1092 40.0566 23.3563 39.8097C23.6033 39.5627 23.9383 39.4238 24.2877 39.4235H30.3659C30.715 39.4244 31.0495 39.5636 31.2961 39.8107C31.5427 40.0578 31.6813 40.3925 31.6815 40.7416V72.4948Z" fill="white"/>
</g>
<defs>
<linearGradient id="paint0_linear_913_4126" x1="-1.5076e-06" y1="32.268" x2="96" y2="32.268" gradientUnits="userSpaceOnUse">
<stop stop-color="#00FFA2"/>
<stop offset="1" stop-color="#FFE664"/>
</linearGradient>
<clipPath id="clip0_913_4126">
<rect width="96" height="96" fill="white" transform="translate(0 0.781738)"/>
</clipPath>
</defs>
</svg>
