<svg width="24" height="25" viewBox="0 0 24 25" fill="none" xmlns="http://www.w3.org/2000/svg">
<path d="M23.7609 7.9813C23.7609 7.9813 23.5266 6.32661 22.8047 5.60005C21.8906 4.6438 20.8688 4.63911 20.4 4.58286C17.0438 4.33911 12.0047 4.33911 12.0047 4.33911H11.9953C11.9953 4.33911 6.95625 4.33911 3.6 4.58286C3.13125 4.63911 2.10938 4.6438 1.19531 5.60005C0.473438 6.32661 0.24375 7.9813 0.24375 7.9813C0.24375 7.9813 0 9.92661 0 11.8672V13.686C0 15.6266 0.239062 17.5719 0.239062 17.5719C0.239062 17.5719 0.473437 19.2266 1.19062 19.9532C2.10469 20.9094 3.30469 20.8766 3.83906 20.9797C5.76094 21.1625 12 21.2188 12 21.2188C12 21.2188 17.0438 21.2094 20.4 20.9704C20.8688 20.9141 21.8906 20.9094 22.8047 19.9532C23.5266 19.2266 23.7609 17.5719 23.7609 17.5719C23.7609 17.5719 24 15.6313 24 13.686V11.8672C24 9.92661 23.7609 7.9813 23.7609 7.9813ZM9.52031 15.8938V9.14849L16.0031 12.5329L9.52031 15.8938Z" fill="#97A5C1"/>
</svg>
